<?xml version="1.0" encoding="utf-8"?>
<!-- Generator: Adobe Illustrator 19.1.0, SVG Export Plug-In . SVG Version: 6.00 Build 0)  -->
<svg version="1.1" id="Layer_1" xmlns="http://www.w3.org/2000/svg" xmlns:xlink="http://www.w3.org/1999/xlink" x="0px" y="0px"
	 viewBox="-123 318.8 363.6 157.2" style="enable-background:new -123 318.8 363.6 157.2;" xml:space="preserve">
<style type="text/css">
	.st0{fill:#FFFFFF;}
</style>
<g id="xK4LqB.tif">
	<g>
		<path class="st0" d="M-110.7,365.5c-4,0-7.9,0-11.9,0c0-1.7,0-3.3,0-4.9c0-0.3,0.5-0.6,0.9-0.8c2.9-1.1,5.9-2.1,8.8-3.1
			c2.1-0.7,2.1-0.7,2.1-3c-0.1-4.7,0.6-9.2,2.2-13.6c4-10.7,11.5-17.6,22.5-20.2c9.6-2.3,18.9-1.1,27.3,4.5c0.3,0.2,1,0.2,1.4,0
			c2.8-1.2,5.6-2.4,8.3-3.8c1.9-1,3.9-1.1,6.1-0.9c0,0.5,0.1,1,0.1,1.4c0,35.4,0,70.9,0,106.3c0,4.7,1.9,7.2,6.4,8.4
			c1.9,0.5,3.9,0.8,6,1.2c0,1.8,0,3.6,0,5.5c-13.2,0-26.4,0-39.7,0c0-1.8,0-3.6,0-5.5c1.9-0.4,3.9-0.7,5.8-1.2
			c4.9-1.3,6.7-3.6,6.7-8.6c0-28.8,0-57.6,0-86.4c0-1-0.3-2.1-0.8-2.9c-3.4-5.6-7.6-10.3-14.2-12c-6.1-1.5-12-1.3-16.9,3.2
			c-2.5,2.3-3.8,5.3-4.8,8.4c-1.9,6.3-1.5,12.7-1.5,19.3c7.1,0,14.1,0,21.2,0c0,2.9,0,5.7,0,8.6c-7.1,0-14.1,0-21.2,0
			c0,0.6-0.1,1-0.1,1.5c0,20.3,0,40.6,0,60.8c0,4.3,1.6,6.6,5.8,7.8c2.1,0.6,4.3,1,6.6,1.5c0,1.7,0,3.5,0,5.4c-13.2,0-26.3,0-39.5,0
			c0-1.8,0-3.6,0-5.4c1.9-0.4,3.9-0.7,5.8-1.2c4.7-1.2,6.5-3.6,6.5-8.3c0-20.1,0-40.1,0-60.2C-110.7,366.8-110.7,366.3-110.7,365.5z
			"/>
		<path class="st0" d="M82,319.4c0,16.8,0,33.1,0,49.8c0.8-0.9,1.3-1.6,1.8-2.2c5.6-5.8,12.1-10.3,20.3-11.4
			c10.5-1.4,20,0.9,27.8,8.4c4.8,4.6,7.7,10.5,9.3,17c3.2,13.1,2.5,25.9-2.8,38.3c-4.6,10.6-12.3,18.4-23.3,22.5
			c-5.1,1.9-10.4,2.5-15.9,2.2c-6.2-0.2-12.3-1-18.2-3.2c-4.5-1.7-8.8-3.7-12.7-6.6c-0.9-0.6-1.2-1.3-1.2-2.4
			c0-31.1,0-62.3,0.1-93.4c0-1.4-0.4-2-1.7-2.6c-3.1-1.4-6.1-3-9.2-4.3c-1.6-0.7-0.7-2-0.9-3c-0.2-0.9,0.6-1,1.2-1.3
			c6.7-2.4,13.4-4.9,20.2-7.2C78.3,319.6,80,319.7,82,319.4z M81.9,395.6c0,6.1-0.1,12.3,0,18.4c0,2.7,0.3,5.4,0.8,8
			c1.2,6.5,4.8,11.3,11.3,13.5c3.4,1.1,6.8,1.3,10.3,1.2c3.5-0.2,6.7-1.2,9.8-2.9c6.3-3.7,9.8-9.5,11.9-16.2
			c2.3-7.4,2.6-14.9,1.7-22.6c-0.7-6.3-2.2-12.3-5.5-17.6c-3.1-4.9-7.2-8.7-12.9-10.3c-4.7-1.3-9.4-1-14.1,0.1
			c-4.2,0.9-7.9,2.7-11.4,5.2c-1.3,1-2,2.1-1.9,3.8C82,382.6,81.9,389.1,81.9,395.6z"/>
		<path class="st0" d="M157.7,462.8c2.8,0,5.4,0.1,8,0c3-0.2,6-0.5,8.9-1.1c2.9-0.5,5.2-2.3,6.4-4.9c1.8-3.8,3.3-7.7,5-11.5
			c0.7-1.5,0.6-2.8-0.1-4.3c-10.2-23.5-20.4-47-30.5-70.6c-1.5-3.5-3.9-5.5-7.3-6.7c-2.9-1-2.9-1.1-2.9-4.2c0-0.8,0-1.5,0-2.4
			c12.6,0,25.1,0,37.7,0c0,1.8,0,3.6,0,5.4c-2.5,0.5-5,0.9-7.5,1.5c-2.1,0.5-3.9,1.5-4,3.9c-0.1,1.3,0.2,2.6,0.6,3.8
			c7.1,17.5,14.2,35.1,21.3,52.6c0.1,0.3,0.2,0.6,0.5,1.1c0.3-0.6,0.5-1.1,0.6-1.6c6.5-17.2,13-34.5,19.5-51.7
			c0.3-0.7,0.5-1.5,0.7-2.3c0.6-2.9-0.4-4.7-3.3-5.5c-2.1-0.6-4.2-0.9-6.3-1.4c-0.6-0.1-1.1-0.2-1.8-0.3c0-1.8,0-3.7,0-5.5
			c10.3,0,20.5,0,30.9,0c0,1.7,0,3.3,0,5c0,0.3-0.5,0.7-0.8,0.8c-1.5,0.7-3.1,1.2-4.6,1.8c-2,0.8-3.3,2.2-4.1,4.2
			c-12,30.3-24,60.7-36.1,91c-1.7,4.4-4.2,8.4-7.3,11.8c-2.4,2.7-5.7,3.8-9.2,4.1c-4.8,0.4-9.2-0.7-12.9-3.9c-1.1-1-1.8-2-1.7-3.6
			C157.8,466.6,157.7,464.8,157.7,462.8z"/>
		<path class="st0" d="M5.6,357.1c0,1.9,0,3.7,0,5.5c-2.4,0.5-4.7,0.9-7,1.4c-4.6,0.9-5.5,3.7-3.9,7.8c3.6,9.2,7.4,18.2,11.1,27.3
			c3.4,8.4,6.8,16.7,10.2,25.1c0.1,0.3,0.3,0.6,0.6,1.2c1.4-3.8,2.8-7.4,4.2-11c5.3-14.1,10.6-28.1,15.9-42.2
			c0.1-0.2,0.2-0.4,0.2-0.6c1.6-4.4,0.5-6.5-4.1-7.7c-2.2-0.5-4.5-0.9-6.8-1.3c0-1.8,0-3.6,0-5.5c10.3,0,20.5,0,30.9,0
			c0,1.7,0,3.3,0,5c0,0.3-0.5,0.7-0.8,0.9c-1.6,0.7-3.2,1.3-4.9,1.9c-1.8,0.8-3,2.2-3.7,4c-12,30.4-24.1,60.8-36.1,91.3
			c-1.7,4.3-4.1,8.1-7.1,11.5c-2.4,2.7-5.5,3.9-9,4.2c-5.3,0.6-10-0.7-13.8-4.5c-0.6-0.6-0.9-1.5-1-2.3c-0.1-2,0-4,0-6.2
			c0.4,0,0.7-0.1,1-0.1c3.9-0.1,7.7-0.1,11.6-0.3c5-0.3,9.2-2.2,11.4-7c1.8-3.9,3.3-8,4.8-12.1c0.1-0.3,0-0.9-0.2-1.2
			c-10.5-24.3-21-48.6-31.5-72.9c-1-2.3-2.4-3.9-4.8-4.8c-0.9-0.3-1.7-0.7-2.6-1.1c-2.2-0.8-2.2-0.8-2.2-3.2c0-1,0-2.1,0-3.2
			C-19.5,357.1-7,357.1,5.6,357.1z"/>
		<path class="st0" d="M216.9,434.2c0-5.6,4.2-9.9,9.9-9.9c5.5-0.1,10.1,4.4,10.1,9.8c0,5.9-4.3,10.3-10,10.3
			C221.2,444.2,216.9,439.9,216.9,434.2z"/>
	</g>
</g>
</svg>
